<svg id="Layer_1" data-name="Layer 1" xmlns="http://www.w3.org/2000/svg" viewBox="0 0 484.54 206.12"><defs><style>.cls-1{fill:#fff;}</style></defs><path class="cls-1" d="M82.89,152.25q10.65.31,17.74,3.68a28.06,28.06,0,0,1,11.08,8.95A30.83,30.83,0,0,1,116.93,178a54.11,54.11,0,0,1,0,16,89.07,89.07,0,0,1-5.43,20.68,136.71,136.71,0,0,1-10.33,21.06,148.23,148.23,0,0,1-14.07,19.57A119,119,0,0,1,70.48,271.6a81.1,81.1,0,0,1-18.11,11,43.57,43.57,0,0,1-18.48,3.84,35.19,35.19,0,0,1-12.63-2.14,21.78,21.78,0,0,1-7.83-5.11,18.69,18.69,0,0,1-4.1-6.77,29.91,29.91,0,0,1-1.49-7.2A30.58,30.58,0,0,1,8,258.92c.25-1.89.44-3.29.58-4.21a81.74,81.74,0,0,1,2.29-10.35,72.82,72.82,0,0,1,3.57-9.59,35.19,35.19,0,0,1-.8-4.64,52.15,52.15,0,0,1-.26-5.28,56.44,56.44,0,0,1,2.29-16.15,79.85,79.85,0,0,1,6.87-16.63A90.08,90.08,0,0,1,33.3,176.56a77.65,77.65,0,0,1,14.12-12.85,68,68,0,0,1,16.72-8.64A51.06,51.06,0,0,1,82.89,152.25ZM31.33,254.73a17.79,17.79,0,0,1-3.25-1.07,18.57,18.57,0,0,1-3.62-2.07,23.43,23.43,0,0,1-7.08-8.37A71,71,0,0,0,15.24,251c-.42,2.13-.71,3.62-.85,4.48a38.9,38.9,0,0,0-.58,4,31.17,31.17,0,0,0-.06,5.49A23.43,23.43,0,0,0,15,270.92a14.74,14.74,0,0,0,3.25,5.38,15.22,15.22,0,0,0,5.91,3.78,24.39,24.39,0,0,0,9.43,1.18,46.3,46.3,0,0,0,18.11-4.59A81.21,81.21,0,0,0,69,265.54a117.79,117.79,0,0,0,15.5-15.66,135,135,0,0,0,12.78-18.37,127.35,127.35,0,0,0,9.16-19.29A76.65,76.65,0,0,0,111,193.9a43.41,43.41,0,0,0-.32-12.46,24.11,24.11,0,0,0-13.59-18.06A36.28,36.28,0,0,0,82.57,160a36.21,36.21,0,0,0-6.39.64,60.08,60.08,0,0,0-11,3.09,79.7,79.7,0,0,0-13.37,6.61,59.89,59.89,0,0,0-13.36,11.29A71.64,71.64,0,0,0,27.23,198.8,77.38,77.38,0,0,0,20.68,223v.11a97.31,97.31,0,0,1,8.73-11.77,118.14,118.14,0,0,1,9.43-9.7q4.74-4.31,9.22-7.72t8.09-5.7c2.42-1.52,4.42-2.73,6-3.62s2.61-1.44,3-1.65a2.43,2.43,0,0,1,2.23,0,2.86,2.86,0,0,1,1.34,1.49,3.42,3.42,0,0,1,0,2.13,3.17,3.17,0,0,1-1.7,1.92,116.43,116.43,0,0,0-17.48,10.92,104.48,104.48,0,0,0-13,11.72,88.16,88.16,0,0,0-9.26,11.71,92.58,92.58,0,0,0-6.24,11A18.57,18.57,0,0,0,24.35,241a23.22,23.22,0,0,0,4.53,4.47,15.42,15.42,0,0,0,4.42,2.35,12.25,12.25,0,0,0,2.82.63c.64,0,1,.4,1.18,1.18a4.09,4.09,0,0,1-.38,2.45,5.23,5.23,0,0,1-2,2.18A4.79,4.79,0,0,1,31.33,254.73Z" transform="translate(-7.73 -146.94)"/><path class="cls-1" d="M163.53,209.67a4,4,0,0,1,3,.37,3.34,3.34,0,0,1,1.28,1.81,5.1,5.1,0,0,1,0,2.4,9.19,9.19,0,0,1-.69,2.13,27.29,27.29,0,0,1-3.36,4.53c-1.53,1.74-3.13,3.42-4.79,5.06l-4.53,4.42A22.07,22.07,0,0,0,152,233a98.29,98.29,0,0,0-7,12.83c-1.31,3.17-1.85,5.44-1.6,6.82a2.12,2.12,0,0,0,2.61,1.87,16.48,16.48,0,0,0,5.6-1.92,60.24,60.24,0,0,0,7.45-4.63q4.11-2.94,8.15-6.29t7.67-6.76a78.23,78.23,0,0,0,6-6.18,1.93,1.93,0,0,1,1.54-.59,3.06,3.06,0,0,1,1.65.59,2.93,2.93,0,0,1,1.07,1.33,1.24,1.24,0,0,1-.32,1.44,146,146,0,0,1-12.09,11.77A102.29,102.29,0,0,1,161,252.12a57.46,57.46,0,0,1-10.39,5.33,16.86,16.86,0,0,1-7.83,1.33,4.71,4.71,0,0,1-4.1-3.25q-1-2.82.69-8.36c-1.77,1.91-3.6,3.78-5.49,5.59s-3.69,3.43-5.43,4.85a34.63,34.63,0,0,1-5,3.46,11.62,11.62,0,0,1-4.31,1.54q-4,.54-6-.64a5.25,5.25,0,0,1-2.5-3.51,12.08,12.08,0,0,1,.21-5.49,48.27,48.27,0,0,1,2.13-6.6,71.26,71.26,0,0,1,3.25-7q1.86-3.51,3.57-6.5c1.13-2,2.17-3.73,3.09-5.22s1.53-2.52,1.81-3.09c.92-1.92,1.92-3.76,3-5.54a33.27,33.27,0,0,1,3.31-4.63,13.71,13.71,0,0,1,3.56-3,5.2,5.2,0,0,1,3.79-.64,2,2,0,0,1,1.65,1.71,6.53,6.53,0,0,1-.32,3.19,16.41,16.41,0,0,1-1.76,3.68,14.74,14.74,0,0,1-2.45,3A40.19,40.19,0,0,0,131.1,227q-2.29,2.82-4.53,6.12c-1.49,2.21-2.95,4.44-4.37,6.72s-2.66,4.42-3.73,6.44a55.11,55.11,0,0,0-2.5,5.33,10.44,10.44,0,0,0-.91,3.25c.07,2,.6,3.14,1.6,3.46a5.23,5.23,0,0,0,3.52-.32,19.52,19.52,0,0,0,4.1-2.29c1.38-1,2.5-1.81,3.35-2.45a42.86,42.86,0,0,0,6.08-6q3.3-3.83,6.49-7.88t5.81-7.62q2.61-3.57,3.89-5.16c.42-.71.87-1.41,1.33-2.08s1-1.4,1.54-2.19c1.07-1.56,2.06-3.08,3-4.58s1.81-2.8,2.66-3.94A17.93,17.93,0,0,1,161,211,5.17,5.17,0,0,1,163.53,209.67Z" transform="translate(-7.73 -146.94)"/><path class="cls-1" d="M211.58,210.09a21.23,21.23,0,0,1,4.47.48,10.89,10.89,0,0,1,4.1,1.82,11.12,11.12,0,0,1,3.2,3.67,14.63,14.63,0,0,1,1.65,6,11.18,11.18,0,0,1-.69,4.63,40.35,40.35,0,0,1-2.45,5.71,58.54,58.54,0,0,1-3.52,5.91,59.83,59.83,0,0,1-4,5.34,33.8,33.8,0,0,1-3.84,3.94,6,6,0,0,1-3.09,1.65,11.43,11.43,0,0,1,7.62,3.9,19.65,19.65,0,0,1,3.89,7.51,29.08,29.08,0,0,1,1,8.8,32.51,32.51,0,0,1-1.12,7.83,100.9,100.9,0,0,1,11-2.2q5.27-.74,10-.94c3.83-.14,6.44.13,7.83.84a3.35,3.35,0,0,1,2.08,3.14,4.22,4.22,0,0,1-1.18,3.21,4,4,0,0,1-3.3.9,13.7,13.7,0,0,1-3.83-.9,12.15,12.15,0,0,0-4.48-.69,101.61,101.61,0,0,0-20.56,2.13c-1,2.13-2.49,5.16-4.47,9.11a147.11,147.11,0,0,1-7.57,13.05,159,159,0,0,1-10.86,14.8,110.23,110.23,0,0,1-14.22,14.38,95.53,95.53,0,0,1-17.69,11.78,71.1,71.1,0,0,1-21.36,7,19.34,19.34,0,0,1-4.53.16,13.88,13.88,0,0,1-5.11-1.27,9.75,9.75,0,0,1-3.94-3.36q-1.55-2.24-1-6.18a31.41,31.41,0,0,1,5-12.78A69.59,69.59,0,0,1,141,316.94a116.11,116.11,0,0,1,14.49-11.66,171.53,171.53,0,0,1,17.26-10.39q9.1-4.78,18.75-8.73t18.91-6.71a62.77,62.77,0,0,0,2.87-14.71,11.61,11.61,0,0,0-1.17-6,11.46,11.46,0,0,0-2.93-3.57,9.54,9.54,0,0,0-3.14-1.71,4.85,4.85,0,0,0-1.81-.32,1.39,1.39,0,0,0-.54.32,5.63,5.63,0,0,1-.79.59c-.4.25-1,.58-1.76,1s-1.92,1-3.41,1.6a15.46,15.46,0,0,1-2.13.64,20.14,20.14,0,0,1-3.78.53,14,14,0,0,1-4-.37,3.8,3.8,0,0,1-2.72-2.08,3.52,3.52,0,0,1-.21-3.14,6.47,6.47,0,0,1,2.29-2.61,16.5,16.5,0,0,1,4.1-2,24,24,0,0,1,5.33-1.17,28,28,0,0,1,3.19-.21,11.24,11.24,0,0,1,2.35.21,12,12,0,0,1,2,.53c.5.07,1.21-.33,2.13-1.22a28.89,28.89,0,0,0,3-3.57c1.1-1.49,2.23-3.18,3.41-5.06s2.23-3.76,3.19-5.65a51.85,51.85,0,0,0,2.4-5.38,12.6,12.6,0,0,0,1-4.26,13.54,13.54,0,0,0-.27-2.71,4.46,4.46,0,0,0-1.12-2.24,5.14,5.14,0,0,0-2.55-1.33,12.86,12.86,0,0,0-4.48-.11,20.33,20.33,0,0,0-9.16,3.57,52.11,52.11,0,0,0-8.31,7,70.75,70.75,0,0,0-6.71,8c-1.92,2.7-3.37,4.9-4.37,6.61a7.78,7.78,0,0,0-.9,2.13q-.27,1.06-.48,1.92a4.8,4.8,0,0,1-.7,1.54,2.86,2.86,0,0,1-3.88.8c-1-.43-1.6-1.45-1.81-3.09a11,11,0,0,1,.58-5.65,7.37,7.37,0,0,1,3.25-3.83,14.31,14.31,0,0,0,1.6-2q1.38-1.86,3.73-4.53t5.38-5.75a54.38,54.38,0,0,1,6.65-5.75,41.64,41.64,0,0,1,7.67-4.48A21.43,21.43,0,0,1,211.58,210.09Zm-68.29,138a86.18,86.18,0,0,0,24.08-11.13A108.84,108.84,0,0,0,186.12,321a106.27,106.27,0,0,0,13.74-18.21,113.42,113.42,0,0,0,8.84-18.16,137.18,137.18,0,0,0-20.83,7.61A175.51,175.51,0,0,0,169,302.35a160.54,160.54,0,0,0-16,11.24,121,121,0,0,0-12.31,11.18,64.36,64.36,0,0,0-7.83,9.86c-1.84,3-2.7,5.39-2.56,7.24a10,10,0,0,0,.86,3.73,5.49,5.49,0,0,0,2.29,2.5,7.93,7.93,0,0,0,3.94,1A19.39,19.39,0,0,0,143.29,348.05Z" transform="translate(-7.73 -146.94)"/><path class="cls-1" d="M272,210.09a21.23,21.23,0,0,1,4.47.48,10.94,10.94,0,0,1,4.11,1.82,11.21,11.21,0,0,1,3.19,3.67,14.63,14.63,0,0,1,1.65,6,11.18,11.18,0,0,1-.69,4.63,39.22,39.22,0,0,1-2.45,5.71,58.54,58.54,0,0,1-3.52,5.91,59.83,59.83,0,0,1-4,5.34,33.8,33.8,0,0,1-3.84,3.94,5.94,5.94,0,0,1-3.09,1.65,11.43,11.43,0,0,1,7.62,3.9,19.65,19.65,0,0,1,3.89,7.51,29.08,29.08,0,0,1,1,8.8,32,32,0,0,1-1.12,7.83,100.9,100.9,0,0,1,11-2.2c3.52-.49,6.83-.8,10-.94,3.84-.14,6.44.13,7.83.84a3.34,3.34,0,0,1,2.08,3.14,4.22,4.22,0,0,1-1.17,3.21,4,4,0,0,1-3.31.9,13.7,13.7,0,0,1-3.83-.9,12.15,12.15,0,0,0-4.48-.69,101.68,101.68,0,0,0-20.56,2.13q-1.49,3.19-4.47,9.11a149.32,149.32,0,0,1-7.56,13.05,161,161,0,0,1-10.87,14.8,110.23,110.23,0,0,1-14.22,14.38A95.2,95.2,0,0,1,222,345.87a70.91,70.91,0,0,1-21.36,7,19.28,19.28,0,0,1-4.52.16,13.93,13.93,0,0,1-5.12-1.27,9.75,9.75,0,0,1-3.94-3.36q-1.54-2.24-1-6.18a31.41,31.41,0,0,1,5-12.78,69.59,69.59,0,0,1,10.44-12.47,116.11,116.11,0,0,1,14.49-11.66,172.66,172.66,0,0,1,17.26-10.39q9.1-4.78,18.75-8.73t18.91-6.71a62.77,62.77,0,0,0,2.87-14.71,11.61,11.61,0,0,0-1.17-6,11.46,11.46,0,0,0-2.93-3.57,9.54,9.54,0,0,0-3.14-1.71,4.82,4.82,0,0,0-1.81-.32,1.35,1.35,0,0,0-.53.32,5.89,5.89,0,0,1-.8.59c-.39.25-1,.58-1.76,1s-1.92,1-3.41,1.6a14.55,14.55,0,0,1-2.13.64,20.14,20.14,0,0,1-3.78.53,14,14,0,0,1-4.05-.37,3.82,3.82,0,0,1-2.72-2.08,3.52,3.52,0,0,1-.21-3.14,6.55,6.55,0,0,1,2.29-2.61,16.5,16.5,0,0,1,4.1-2,24.17,24.17,0,0,1,5.33-1.17,28.12,28.12,0,0,1,3.19-.21,11.17,11.17,0,0,1,2.35.21,12,12,0,0,1,2,.53c.5.07,1.21-.33,2.13-1.22a28.89,28.89,0,0,0,3-3.57q1.65-2.24,3.41-5.06c1.17-1.88,2.24-3.76,3.19-5.65a51.85,51.85,0,0,0,2.4-5.38,12.6,12.6,0,0,0,1-4.26,13.54,13.54,0,0,0-.27-2.71,4.44,4.44,0,0,0-1.11-2.24,5.18,5.18,0,0,0-2.56-1.33,12.86,12.86,0,0,0-4.48-.11,20.37,20.37,0,0,0-9.16,3.57,52.11,52.11,0,0,0-8.31,7,71.82,71.82,0,0,0-6.71,8c-1.92,2.7-3.37,4.9-4.37,6.61a7.78,7.78,0,0,0-.9,2.13q-.27,1.06-.48,1.92a4.58,4.58,0,0,1-.69,1.54,3.31,3.31,0,0,1-1.55,1.12,3.25,3.25,0,0,1-2.34-.32c-1-.43-1.6-1.45-1.81-3.09a11,11,0,0,1,.58-5.65,7.42,7.42,0,0,1,3.25-3.83,13.5,13.5,0,0,0,1.6-2c.92-1.24,2.17-2.75,3.73-4.53s3.35-3.69,5.38-5.75a53.75,53.75,0,0,1,6.66-5.75,41.31,41.31,0,0,1,7.67-4.48A21.38,21.38,0,0,1,272,210.09Zm-68.29,138a86.18,86.18,0,0,0,24.08-11.13A108.84,108.84,0,0,0,246.52,321a105.76,105.76,0,0,0,13.74-18.21,112.58,112.58,0,0,0,8.84-18.16,136.67,136.67,0,0,0-20.82,7.61,175.67,175.67,0,0,0-18.86,10.07,160.54,160.54,0,0,0-16,11.24,121,121,0,0,0-12.31,11.18,64.36,64.36,0,0,0-7.83,9.86c-1.84,3-2.7,5.39-2.55,7.24a9.84,9.84,0,0,0,.85,3.73,5.54,5.54,0,0,0,2.29,2.5,7.93,7.93,0,0,0,3.94,1A19.39,19.39,0,0,0,203.69,348.05Z" transform="translate(-7.73 -146.94)"/><path class="cls-1" d="M332,212.65a14.12,14.12,0,0,1,6.88.85,8.41,8.41,0,0,1,3.67,3,9.2,9.2,0,0,1,1.39,3.94,22.39,22.39,0,0,1,.1,3.68,4.07,4.07,0,0,1-1.54,3.09,4.89,4.89,0,0,1-2.88.95,5.14,5.14,0,0,1-2.82-.8,2.54,2.54,0,0,1-1.28-2.29c0-.56,0-1.33,0-2.29a9.61,9.61,0,0,0-.26-2.71,3,3,0,0,0-1.39-1.92c-.71-.43-1.84-.43-3.41,0a46.5,46.5,0,0,0-11.87,5.33,52.84,52.84,0,0,0-9.38,7.45,44.68,44.68,0,0,0-6.5,8.21,26.69,26.69,0,0,0-3.3,7.61,9.17,9.17,0,0,0,.21,5.76,4.39,4.39,0,0,0,4.1,2.5,15.55,15.55,0,0,0,6.24-1,37.09,37.09,0,0,0,6.6-3.09,50.32,50.32,0,0,0,6-4.15,43.65,43.65,0,0,0,4.47-4,36.88,36.88,0,0,1,2.56-4.8c.43-1,.94-2.09,1.55-3.3a13.53,13.53,0,0,1,2.13-3.14,7,7,0,0,1,2.82-1.92,4.64,4.64,0,0,1,3.62.37,3.12,3.12,0,0,1,1.44,1.28,2.5,2.5,0,0,1,.27,1.49,1.32,1.32,0,0,1-.43,1.71l-1.06,1q-3.21,4.05-6.4,7.35a19.21,19.21,0,0,0-2.77,5.75,11.54,11.54,0,0,0-.37,4.37,6.6,6.6,0,0,0,1.07,2.93,2.56,2.56,0,0,0,1.65,1.22,11.23,11.23,0,0,0,6.55-1.11,49.27,49.27,0,0,0,7.93-4.48,97.49,97.49,0,0,0,8.31-6.34q4.15-3.51,7.57-6.71c2.27-2.13,4.21-4,5.8-5.54a33.76,33.76,0,0,1,3-2.77q1.92-1.38,3.3-1c.92.29,1,1.21.32,2.77a23.76,23.76,0,0,1-3.3,4q-2.77,3-6.92,6.82t-9.22,7.78a91.38,91.38,0,0,1-10.12,6.87,41.9,41.9,0,0,1-9.64,4.2c-3.06.86-5.65.75-7.78-.31a7.13,7.13,0,0,1-3.41-3.57,12.58,12.58,0,0,1-1-6.56,43.34,43.34,0,0,1-10.22,6.18,27.27,27.27,0,0,1-10.66,2.13,16.06,16.06,0,0,1-5.43-.74,7.88,7.88,0,0,1-3.14-2,6.1,6.1,0,0,1-1.49-2.72,17.16,17.16,0,0,1-.48-2.77,21.41,21.41,0,0,1,1.65-8.47,41.49,41.49,0,0,1,4.74-8.63,54,54,0,0,1,7-8,64.68,64.68,0,0,1,8.36-6.71,52.08,52.08,0,0,1,8.79-4.79A25,25,0,0,1,332,212.65Z" transform="translate(-7.73 -146.94)"/><path class="cls-1" d="M480.67,156.4a19.5,19.5,0,0,1,8,2q3.15,1.69,3.52,3.41c.25,1.13-.59,2.11-2.5,2.92s-5.26,1-10,.59a12.38,12.38,0,0,1-3.35-.74l-3.47-1.28-3.09-1.18a10.27,10.27,0,0,0-2.23-.63,215.56,215.56,0,0,0-29.3-.75q-13.74.64-25.46,2.34-7.14,10.33-13.58,21.95t-11.67,23q-5.22,11.34-8.95,21.62a142,142,0,0,0-5.38,18q-1.65,7.68-1,12.09c.46,2.95,1.89,4.25,4.31,3.89a21,21,0,0,0,7.78-2.87,77.91,77.91,0,0,0,8.73-5.92q4.47-3.45,8.79-7.4t7.78-7.4c2.3-2.31,4.24-4.28,5.8-5.92s2.52-2.62,2.88-3a2.81,2.81,0,0,1,1.49-.8,1.69,1.69,0,0,1,1.12.27,1.8,1.8,0,0,1,.69.85,2.69,2.69,0,0,1,.21,1,16.45,16.45,0,0,1-2.34,3.14q-2.34,2.82-6.23,6.93t-8.9,8.78A114.19,114.19,0,0,1,394,259.9a75.21,75.21,0,0,1-10.86,6.71,22.62,22.62,0,0,1-10,2.71,5.84,5.84,0,0,1-5.43-2.87,15.94,15.94,0,0,1-1.76-7.94,55.26,55.26,0,0,1,1.44-11.93q1.5-6.87,4.05-14.86T377.44,215q3.51-8.73,7.67-17.47t8.68-17.1q4.53-8.35,9.22-15.71-8,1.5-14.44,3.14t-11.13,3q-4.68,1.38-7.4,2.34c-1.81.64-2.9,1-3.25,1.07a3.88,3.88,0,0,1-3.14-.53,2.67,2.67,0,0,1-1-2.13,4.57,4.57,0,0,1,.8-2.51,4.42,4.42,0,0,1,2.4-1.75c.35-.08,1.53-.41,3.52-1s4.74-1.33,8.25-2.18,7.72-1.74,12.63-2.66,10.43-1.82,16.61-2.67c1.35-1.92,2.65-3.74,3.89-5.48s2.51-3.36,3.78-4.85a4.1,4.1,0,0,1,2.72-1.55,4.69,4.69,0,0,1,2.72.48,3.55,3.55,0,0,1,1.65,1.87,2.26,2.26,0,0,1-.48,2.39l-4.47,6q13.41-1.49,29.45-2T480.67,156.4Z" transform="translate(-7.73 -146.94)"/></svg>